<?xml version="1.0" standalone="no"?>
<!DOCTYPE svg PUBLIC "-//W3C//DTD SVG 20010904//EN"
 "http://www.w3.org/TR/2001/REC-SVG-20010904/DTD/svg10.dtd">
<svg version="1.0" xmlns="http://www.w3.org/2000/svg"
 width="1200.000000pt" height="500.000000pt" viewBox="0 0 1200.000000 500.000000"
 preserveAspectRatio="xMidYMid meet">

<g transform="translate(0.000000,500.000000) scale(0.100000,-0.100000)"
fill="#000000" stroke="none">
<path d="M2920 4877 c-68 -19 -116 -53 -160 -111 -49 -68 -91 -103 -141 -117
-37 -12 -195 -2 -466 28 l-53 6 0 -91 0 -91 99 -3 100 -3 -155 -410 c-479
-1267 -974 -2617 -1120 -3050 -98 -290 -136 -364 -245 -479 -89 -94 -173 -148
-271 -173 -65 -17 -68 -19 -68 -48 l0 -30 572 2 c315 2 646 6 736 9 159 6 163
7 160 27 -2 18 -12 23 -50 28 -173 25 -307 108 -368 229 -42 83 -45 115 -20
216 30 124 135 431 241 712 50 130 102 267 116 305 l25 67 474 0 c371 0 475
-3 478 -13 99 -323 202 -618 317 -904 81 -203 99 -269 99 -354 -1 -139 -80
-218 -225 -224 l-60 -2 -3 -42 -3 -41 676 0 676 0 -3 43 -3 42 -72 6 c-43 4
-92 16 -120 30 -58 28 -152 115 -192 178 -22 35 -521 1278 -587 1464 l-13 37
137 0 c129 0 142 -2 193 -27 34 -17 84 -57 137 -110 l82 -84 -1 288 0 288 -22
-30 c-42 -57 -101 -108 -156 -134 -53 -24 -67 -26 -231 -29 l-175 -3 -287 783
-286 783 406 3 c263 1 425 -2 459 -8 125 -26 247 -119 310 -235 l32 -60 0 460
c0 333 -3 453 -11 435 -68 -160 -115 -212 -254 -280 -142 -69 -149 -70 -616
-70 -230 0 -418 2 -418 3 0 2 -34 95 -75 207 -41 112 -72 206 -69 209 12 12
160 4 194 -11 20 -8 62 -38 95 -67 167 -146 380 -169 590 -65 105 51 107 54
89 139 -46 222 -195 373 -377 381 -40 2 -92 -2 -117 -9z m-390 -2086 c88 -305
158 -556 156 -558 -1 -2 -163 -2 -358 -1 l-355 3 186 545 c206 601 202 589
207 575 2 -5 76 -259 164 -564z"/>
<path d="M5310 2858 c-176 -439 -198 -487 -236 -525 -31 -33 -49 -43 -73 -43
-28 0 -31 -3 -31 -30 l0 -30 195 0 195 0 0 30 c0 29 -2 30 -45 30 -53 0 -99
21 -116 51 -14 27 -7 62 33 167 l31 82 214 -2 215 -3 44 -115 c24 -63 44 -125
44 -137 0 -30 -28 -43 -89 -43 -50 0 -51 -1 -51 -30 l0 -30 216 0 215 0 -3 28
c-3 24 -8 27 -44 30 -27 2 -48 11 -61 25 -11 12 -68 144 -126 292 -293 750
-287 735 -311 735 -20 0 -42 -48 -216 -482z m263 29 c48 -123 87 -229 87 -235
0 -9 -50 -12 -186 -12 -173 0 -186 1 -180 18 39 105 181 452 186 452 3 0 45
-100 93 -223z"/>
<path d="M8570 3330 c-195 -41 -350 -204 -395 -417 -49 -230 28 -473 193 -605
42 -35 148 -88 175 -88 9 0 17 -4 17 -9 0 -4 -26 -11 -57 -14 -77 -8 -191 -65
-237 -118 -52 -61 -70 -106 -74 -185 -3 -57 0 -79 17 -111 83 -163 326 -157
396 9 8 21 15 44 15 53 0 25 -27 17 -34 -11 -9 -33 -79 -109 -116 -124 -47
-19 -135 -8 -166 21 -74 69 -72 169 6 268 29 37 58 59 112 85 99 48 188 61
321 47 99 -11 293 -55 310 -71 5 -4 -11 -43 -36 -86 -24 -44 -67 -124 -95
-180 l-50 -100 -74 8 c-127 14 -222 -19 -255 -87 -17 -36 -10 -61 10 -34 35
47 143 75 244 63 l52 -6 -31 -62 c-106 -211 -268 -358 -452 -411 -45 -13 -85
-16 -166 -13 -92 4 -115 8 -172 35 -74 35 -134 89 -163 148 -16 32 -20 61 -20
140 0 89 3 106 28 157 16 32 46 73 68 91 48 42 50 52 4 33 -64 -27 -104 -66
-139 -136 -91 -183 -32 -362 149 -452 87 -43 141 -53 285 -52 159 0 226 15
345 77 143 74 247 205 320 400 l18 47 98 0 c105 0 171 15 134 30 -11 5 -60 9
-108 9 -61 1 -89 5 -92 14 -6 14 74 236 111 310 14 27 30 47 37 44 74 -28 224
-70 275 -76 116 -14 192 12 192 66 0 29 -27 31 -32 1 -8 -54 -125 -48 -346 19
-81 24 -83 25 -66 44 10 11 31 23 48 27 37 10 47 32 14 32 -14 0 -43 -16 -65
-35 l-41 -35 -88 31 c-49 17 -138 43 -199 59 -66 17 -97 29 -79 29 59 2 161
41 221 85 106 78 173 178 208 311 21 80 21 241 1 329 -41 174 -169 320 -330
376 -68 23 -184 33 -246 20z m186 -65 c138 -41 209 -184 221 -445 12 -283 -54
-463 -195 -532 -58 -28 -176 -31 -233 -6 -91 40 -155 135 -184 275 -19 89 -19
328 -1 426 43 221 205 338 392 282z"/>
<path d="M10620 2858 c-176 -439 -198 -487 -236 -525 -31 -33 -49 -43 -73 -43
-28 0 -31 -3 -31 -30 l0 -30 195 0 195 0 0 30 c0 29 -2 30 -45 30 -53 0 -99
21 -116 51 -14 27 -7 62 33 167 l31 82 214 -2 215 -3 50 -130 49 -130 -22 -17
c-14 -12 -39 -18 -75 -18 -53 0 -54 0 -54 -30 l0 -30 216 0 215 0 -3 28 c-3
24 -8 28 -46 33 -24 3 -51 14 -61 25 -10 10 -66 141 -124 289 -290 743 -287
735 -311 735 -20 0 -41 -48 -216 -482z m263 29 c48 -123 87 -229 87 -235 0 -9
-50 -12 -186 -12 -173 0 -186 1 -180 18 39 105 181 452 186 452 3 0 45 -100
93 -223z"/>
<path d="M6120 3286 c0 -23 4 -24 76 -28 52 -2 78 -8 84 -18 6 -9 10 -204 10
-467 0 -397 -2 -453 -16 -467 -11 -12 -35 -16 -85 -16 l-69 0 0 -30 0 -30 449
0 c420 0 450 1 455 18 2 9 7 87 11 172 3 85 8 172 11 193 6 37 5 38 -22 35
-25 -3 -29 -9 -49 -83 -40 -148 -105 -237 -194 -263 -52 -16 -303 -16 -319 0
-9 9 -12 128 -12 475 l0 463 26 10 c14 6 52 10 85 10 56 0 59 1 59 25 l0 25
-250 0 -250 0 0 -24z"/>
<path d="M7120 3285 c0 -23 3 -25 49 -25 53 0 101 -14 113 -33 4 -7 8 -215 8
-463 0 -357 -3 -454 -13 -462 -7 -6 -44 -12 -82 -14 -68 -3 -70 -4 -73 -30
l-3 -28 313 0 c400 0 464 13 569 107 60 54 83 105 83 183 0 131 -85 220 -254
265 -37 10 -41 14 -25 20 158 58 238 160 221 282 -12 91 -75 162 -178 201 -36
14 -96 17 -385 20 l-343 3 0 -26z m532 -35 c160 -16 198 -55 198 -202 -1 -118
-37 -188 -113 -217 -16 -6 -89 -11 -163 -11 l-134 0 0 189 c0 104 4 201 10
215 7 20 17 26 52 29 24 2 48 4 53 5 6 1 49 -2 97 -8z m150 -523 c57 -33 96
-95 105 -165 14 -118 -26 -205 -113 -248 -47 -23 -59 -24 -189 -22 -137 3
-140 3 -152 28 -9 18 -13 86 -13 234 l0 208 158 -3 c151 -4 159 -5 204 -32z"/>
<path d="M9220 3287 c0 -23 4 -25 77 -29 59 -4 79 -9 90 -24 10 -14 13 -107
13 -463 0 -263 -4 -452 -10 -461 -6 -10 -33 -17 -87 -20 -76 -5 -78 -6 -81
-32 l-3 -28 256 0 256 0 -3 28 c-3 26 -4 27 -78 30 -56 2 -78 7 -87 19 -10 12
-13 76 -13 235 l0 218 68 0 c87 0 160 -22 195 -57 40 -42 58 -105 66 -233 5
-63 15 -131 23 -150 17 -41 68 -87 104 -96 41 -10 124 2 152 23 37 27 72 101
79 167 6 55 5 56 -21 56 -23 0 -26 -4 -26 -32 -1 -50 -35 -118 -60 -118 -35 0
-70 78 -125 272 -9 34 -29 73 -48 95 -31 35 -120 83 -154 83 -33 0 -5 10 69
24 122 24 198 75 232 158 18 42 21 126 6 179 -15 55 -71 112 -142 145 l-63 29
-342 3 -343 3 0 -24z m620 -49 c76 -23 109 -84 110 -198 0 -99 -26 -154 -90
-190 -40 -22 -58 -25 -177 -28 l-133 -4 0 199 c0 109 4 204 9 211 5 8 24 18
42 22 41 10 191 2 239 -12z"/>
<path d="M10197 2013 c-22 -26 -135 -238 -236 -448 -104 -215 -131 -259 -174
-285 -46 -29 -60 -24 -27 8 34 34 54 102 45 150 -3 19 -22 63 -41 99 -38 71
-43 117 -18 165 14 27 19 30 50 25 39 -7 54 7 24 23 -30 16 -75 3 -109 -31
-17 -16 -60 -88 -97 -159 -37 -72 -78 -137 -91 -145 -12 -8 -27 -33 -33 -56
-12 -45 -55 -92 -79 -87 -13 3 -16 17 -15 63 1 68 36 156 84 217 31 39 27 48
-24 48 -30 0 -51 -25 -120 -143 -72 -123 -122 -177 -163 -177 -39 0 -46 23
-29 89 34 132 185 301 268 301 15 0 36 -10 48 -22 14 -16 23 -19 31 -11 16 16
-21 50 -71 63 -123 33 -289 -108 -334 -284 -18 -68 -12 -126 16 -155 40 -44
112 -13 182 79 21 27 39 50 40 50 0 0 -1 -25 -2 -56 -5 -69 13 -94 69 -94 28
0 47 8 71 29 l33 29 18 -24 c9 -13 32 -27 50 -32 44 -12 196 -3 230 15 27 13
28 13 19 -4 -9 -17 -6 -18 29 -15 37 4 42 8 76 70 73 130 196 262 245 262 26
0 23 -11 -27 -103 -53 -98 -65 -155 -41 -192 38 -59 110 -51 174 19 l40 44 7
-34 c11 -62 79 -83 143 -44 18 11 47 41 65 66 l32 46 12 -44 c26 -89 100 -113
185 -59 35 22 85 75 104 109 1 1 13 -2 27 -7 16 -6 38 -7 56 -1 17 5 31 7 31
4 0 -2 -13 -34 -29 -69 l-30 -65 38 0 c37 0 39 2 92 92 63 107 182 238 217
238 12 0 22 -6 22 -13 0 -7 -20 -52 -45 -100 -62 -122 -61 -192 3 -215 41 -14
75 -5 120 34 40 34 127 184 119 207 -2 6 -19 -17 -37 -52 -64 -120 -157 -197
-176 -147 -10 26 26 128 91 256 35 68 62 126 59 129 -9 10 -85 -21 -144 -60
-35 -22 -90 -66 -123 -97 l-60 -57 23 45 c12 25 42 73 66 107 l43 63 -26 6
c-47 12 -74 -14 -133 -129 -77 -147 -110 -177 -168 -156 l-22 8 21 53 c62 155
-5 280 -127 233 -72 -27 -123 -86 -187 -218 -67 -135 -119 -197 -167 -197 -61
0 -50 62 46 274 30 66 53 125 50 133 -4 8 -22 13 -52 13 -42 0 -46 -2 -41 -21
7 -28 -71 -232 -116 -302 -39 -61 -93 -109 -116 -105 -13 3 -16 15 -15 57 2
45 14 78 76 202 64 128 72 149 55 149 -49 0 -220 -110 -282 -182 l-36 -43 41
84 c66 133 209 392 246 444 19 26 34 49 34 52 0 3 -20 5 -43 5 -29 0 -49 -6
-60 -17z m673 -382 c5 -11 10 -38 10 -59 0 -35 -2 -39 -20 -35 -45 12 -62 -37
-38 -104 11 -30 9 -36 -19 -75 -36 -51 -87 -88 -119 -88 -89 0 -31 251 81 349
42 36 89 42 105 12z m-1150 -209 c0 -59 -17 -108 -48 -136 -20 -17 -23 -17
-45 -3 -17 11 -28 34 -40 82 l-17 66 31 62 c18 34 43 82 57 106 l26 44 17 -84
c10 -46 18 -108 19 -137z m-150 -91 c0 -10 9 -30 21 -45 l20 -26 -25 0 c-31 0
-49 30 -40 65 7 29 24 34 24 6z"/>
<path d="M10490 1850 c-35 -35 -20 -80 25 -80 29 0 55 30 55 62 0 41 -47 51
-80 18z"/>
</g>
</svg>
