<svg width="349" height="524" viewBox="0 0 349 524" fill="none" xmlns="http://www.w3.org/2000/svg">
<path d="M194.812 10.0076C199.849 2.51051 211.775 -1.59316 223.196 1.58959C234.866 4.84177 245.974 15.6637 248.995 38.0671L249.033 38.3494L248.811 38.5261C243.499 42.7415 234.16 47.638 223.359 48.657C212.535 49.6782 200.258 46.8007 189.144 35.4841L189.134 35.4744C187.145 33.3325 180.095 29.4712 168.166 31.9997L234.85 214.002H257.5C262.869 214.002 274.674 211.06 281.563 198.758L282.5 197.086V245.709L281.646 244.855C281.586 244.795 281.486 244.666 281.384 244.534C281.279 244.398 281.102 244.166 280.921 243.931C280.536 243.433 280 242.747 279.333 241.936C277.998 240.314 276.136 238.189 273.904 236.051C269.424 231.757 263.54 227.495 257.479 227.002H237.695L238.812 230.328L283.465 343.451L283.467 343.455L283.799 344.278C285.58 348.509 289.176 354.368 294.58 359.108C300.336 364.156 308.123 367.922 317.96 367.135L318.5 367.093V374.635H208.5V367.062L209.067 367.138C215.168 367.963 223.279 366.976 228.049 361.53C232.789 356.117 234.415 346.07 227.038 328.326C212.366 293.033 201.395 258.428 197.623 245.135H120.339C114.426 259.886 105.752 282.351 98.7842 302.213C95.2751 312.215 92.2012 321.551 90.1299 328.906C89.094 332.584 88.3117 335.759 87.8506 338.269C87.62 339.524 87.4711 340.606 87.4102 341.497C87.3487 342.395 87.3788 343.067 87.4863 343.518L87.7324 344.501C89.041 349.456 91.5302 355.048 96.7139 359.829C102.243 364.928 110.884 369.146 124.555 370.637L125 370.686V374.63L124.504 374.635L5.00391 375.635L4.5 375.638V370.165L4.96875 370.135C15.2538 369.482 38.68 359.696 49.0215 325.49C59.4001 291.161 125.016 116.057 156.776 32.1345H140V17.5857L140.546 17.6365L173.109 20.6423L173.169 20.6638C177.128 22.0889 187.11 22.1576 194.577 10.3669L194.812 10.0076ZM161.263 125.838L129.777 217.838L129.551 218.5H188.914L188.73 217.861L162.216 125.861L161.776 124.336L161.263 125.838Z" fill="#0D0000"/>
<path d="M263.635 99.244H196.769H188L196.769 118.774H263.635C291.038 118.774 300.721 139.42 302 145V68C298.8 78.1928 297 81.1103 296.5 81.295C289.5 91.8201 270.212 99.244 263.635 99.244Z" fill="black"/>
<path d="M9.14634 441.634L27.5854 395.756H30L49.4634 445.22C50.1951 447.22 51.7805 448.22 54.2195 448.22H55.9024V451H34.3171V448.22H36.0732C39.878 448.22 41.7805 447.463 41.7805 445.951C41.7805 445.512 41.6829 445.073 41.4878 444.634L37.0244 433.073H15.5854L13.0976 439.732C12.6585 440.902 12.4146 441.634 12.3659 441.927C12.1707 442.659 12.0732 443.39 12.0732 444.122C12.0732 445.195 12.6585 446.146 13.8293 446.976C15.0488 447.805 16.6585 448.22 18.6585 448.22H20.4878V451H0.878049V448.22H1.46341C4.82927 448.22 7.39024 446.024 9.14634 441.634ZM35.9268 430.293L26.4878 406.22L16.8293 430.293H35.9268ZM58.5189 399.707V396.927H83.6165V399.707H77.6165C75.7141 399.707 74.7628 400.561 74.7628 402.268V445.951C74.7628 447.463 76.2263 448.22 79.1531 448.22H86.6897C91.0799 448.22 94.4945 446.78 96.9336 443.902C99.3726 441.024 101.153 436.439 102.275 430.146H104.836L103.665 451H58.5189V448.22H62.9824C64.4458 448.22 65.4945 447.976 66.1287 447.488C66.7628 446.951 67.0799 446 67.0799 444.634V402.341C67.0799 400.585 66.275 399.707 64.6653 399.707H58.5189ZM135.909 451H108.543V448.22H113.08C114.3 448.22 115.251 448.049 115.934 447.707C116.665 447.317 117.031 446.78 117.031 446.098V402.854C117.031 400.756 115.812 399.707 113.373 399.707H108.543V396.927H136.787C142.104 396.927 146.275 398.098 149.3 400.439C152.373 402.78 153.909 405.902 153.909 409.805C153.909 412.829 152.861 415.415 150.763 417.561C148.714 419.659 145.641 421.341 141.543 422.61C151.739 424.805 156.836 429.439 156.836 436.512C156.836 440.707 154.934 444.171 151.129 446.902C147.373 449.634 142.3 451 135.909 451ZM124.714 402.415V421.732H134.958C141.836 421.732 145.275 417.78 145.275 409.878C145.275 405.732 144.153 402.951 141.909 401.537C140.007 400.317 136.495 399.707 131.373 399.707C129.08 399.707 127.397 399.78 126.324 399.927C125.251 400.024 124.714 400.854 124.714 402.415ZM135.836 424.512H124.714V445.293C124.714 447.244 126.031 448.22 128.665 448.22H135.251C143.739 448.22 147.983 444.268 147.983 436.366C147.983 432.659 146.909 429.756 144.763 427.659C142.617 425.561 139.641 424.512 135.836 424.512ZM185.204 395.683C192.472 395.683 198.545 398.341 203.423 403.659C208.301 408.976 210.74 415.756 210.74 424C210.74 432.195 208.301 438.951 203.423 444.268C198.545 449.585 192.594 452.244 185.57 452.244C178.545 452.244 172.618 449.561 167.789 444.195C162.96 438.829 160.545 432.024 160.545 423.78C160.545 415.732 162.96 409.049 167.789 403.732C172.667 398.366 178.472 395.683 185.204 395.683ZM185.789 398.537C182.862 398.537 180.228 399.317 177.887 400.878C175.594 402.439 173.765 404.683 172.399 407.61C171.521 409.415 170.862 411.707 170.423 414.488C169.984 417.268 169.765 420.341 169.765 423.707C169.765 440.829 175.033 449.39 185.57 449.39C190.692 449.39 194.618 447.268 197.35 443.024C200.131 438.78 201.521 432.537 201.521 424.293C201.521 407.122 196.277 398.537 185.789 398.537ZM230.11 424.512V445.659C230.11 447.366 231.061 448.22 232.963 448.22H238.744V451H213.573V448.22H218.915C221.207 448.22 222.354 447.366 222.354 445.659V402.415C222.354 401.39 222.085 400.683 221.549 400.293C221.061 399.902 220.183 399.707 218.915 399.707H213.573V396.927H241.524C246.89 396.927 251.085 398.122 254.11 400.512C257.134 402.902 258.646 406.146 258.646 410.244C258.646 413.561 257.524 416.341 255.28 418.585C253.671 420.195 251.671 421.366 249.28 422.098C247.573 422.634 244.89 423.098 241.232 423.488C244.597 424.415 247.012 425.39 248.476 426.415C250.671 427.927 252.11 430.049 252.793 432.78C255.085 442.049 257.085 446.683 258.793 446.683C259.719 446.683 260.476 446 261.061 444.634C261.695 443.268 262.012 441.415 262.012 439.073H264.5C264.5 447.415 261.427 451.585 255.28 451.585C252.646 451.585 250.524 450.634 248.915 448.732C247.354 446.829 246.573 444.122 246.573 440.61C246.573 435 245.793 431 244.232 428.61C242.427 425.878 239.183 424.512 234.5 424.512H230.11ZM230.11 402.341V421.732H236.549C241.329 421.732 244.793 420.878 246.939 419.171C249.134 417.415 250.232 414.585 250.232 410.683C250.232 405.951 248.963 402.829 246.427 401.317C244.622 400.244 241.28 399.707 236.402 399.707C234.207 399.707 232.939 399.732 232.597 399.78C230.939 400.024 230.11 400.878 230.11 402.341ZM274.649 441.634L293.088 395.756H295.503L314.966 445.22C315.698 447.22 317.283 448.22 319.722 448.22H321.405V451H299.82V448.22H301.576C305.381 448.22 307.283 447.463 307.283 445.951C307.283 445.512 307.186 445.073 306.991 444.634L302.527 433.073H281.088L278.6 439.732C278.161 440.902 277.918 441.634 277.869 441.927C277.674 442.659 277.576 443.39 277.576 444.122C277.576 445.195 278.161 446.146 279.332 446.976C280.552 447.805 282.161 448.22 284.161 448.22H285.991V451H266.381V448.22H266.966C270.332 448.22 272.893 446.024 274.649 441.634ZM301.43 430.293L291.991 406.22L282.332 430.293H301.43Z" fill="black"/>
<path d="M161.1 501.575C155.6 501.575 150.8 500.725 146.7 499.025C142.65 497.325 139.5 495 137.25 492.05C135.05 489.05 133.95 485.65 133.95 481.85C133.95 478.75 134.5 475.925 135.6 473.375C136.7 470.825 138.15 468.7 139.95 467C141.8 465.3 143.825 464.175 146.025 463.625C146.375 463.575 146.55 463.7 146.55 464C146.55 464.25 146.425 464.45 146.175 464.6C143.575 466.15 141.575 468.375 140.175 471.275C138.825 474.175 138.15 477.4 138.15 480.95C138.15 484.8 139.15 488.125 141.15 490.925C143.15 493.675 145.875 495.775 149.325 497.225C152.825 498.725 156.75 499.475 161.1 499.475C164.85 499.475 168.4 498.8 171.75 497.45C175.15 496.15 178.275 494.35 181.125 492.05C183.975 489.75 186.525 487.15 188.775 484.25C191.075 481.3 193 478.225 194.55 475.025C194.9 474.275 195.25 473.55 195.6 472.85C195.95 472.15 196.3 471.45 196.65 470.75C195.45 470.7 194.35 470.65 193.35 470.6C192.4 470.55 191.75 470.525 191.4 470.525C190.05 470.525 188.6 470.625 187.05 470.825C185.55 470.975 184.125 471.3 182.775 471.8C181.475 472.3 180.4 473.075 179.55 474.125C179.2 474.475 178.975 474.75 178.875 474.95C178.825 475.15 178.725 475.25 178.575 475.25C178.375 475.25 178.2 475.1 178.05 474.8C177.9 474.45 177.925 474.075 178.125 473.675C179.275 471.125 180.9 469.4 183 468.5C185.1 467.55 187.45 467.075 190.05 467.075C190.6 467.075 191.625 467.175 193.125 467.375C194.675 467.525 196.3 467.7 198 467.9C200.2 463.45 202.2 459.425 204 455.825C205.85 452.225 207.575 449.225 209.175 446.825C205.575 445.625 201.75 444.575 197.7 443.675C193.65 442.725 189.3 442.25 184.65 442.25C181.2 442.25 178.075 442.725 175.275 443.675C172.475 444.625 170.075 445.9 168.075 447.5C166.125 449.1 164.625 450.875 163.575 452.825C162.525 454.775 162 456.725 162 458.675C162 460.875 162.425 462.625 163.275 463.925C164.125 465.225 165.225 466.175 166.575 466.775C167.975 467.325 169.4 467.6 170.85 467.6C173 467.6 174.825 467.075 176.325 466.025C177.875 464.975 179.1 463.8 180 462.5C180.9 461.15 181.45 460.05 181.65 459.2C181.85 458.4 182.15 458 182.55 458C183.15 458 183.4 458.35 183.3 459.05C183 461.25 182.225 463.15 180.975 464.75C179.725 466.35 178.2 467.575 176.4 468.425C174.6 469.225 172.7 469.625 170.7 469.625C168.65 469.625 166.675 469.125 164.775 468.125C162.875 467.125 161.325 465.675 160.125 463.775C158.925 461.875 158.325 459.575 158.325 456.875C158.325 454.675 158.8 452.5 159.75 450.35C160.75 448.15 162.225 446.15 164.175 444.35C166.175 442.5 168.7 441.025 171.75 439.925C174.8 438.825 178.4 438.275 182.55 438.275C185.5 438.275 188.525 438.625 191.625 439.325C194.725 439.975 197.85 440.825 201 441.875C204.2 442.875 207.35 443.925 210.45 445.025C211.5 443.675 212.5 442.65 213.45 441.95C214.4 441.2 215.35 440.825 216.3 440.825C216.7 440.825 216.975 440.925 217.125 441.125C217.275 441.275 217.35 441.425 217.35 441.575C217.35 441.775 217.275 442 217.125 442.25C216.975 442.5 216.7 442.625 216.3 442.625C214.65 442.625 213.1 443.55 211.65 445.4C215.25 446.6 218.7 447.675 222 448.625C225.35 449.525 228.45 449.975 231.3 449.975C233.5 449.975 234.95 449.75 235.65 449.3C236.35 448.8 236.7 448.125 236.7 447.275C236.7 446.725 236.875 446.45 237.225 446.45C237.475 446.45 237.7 446.625 237.9 446.975C238.15 447.275 238.275 447.65 238.275 448.1C238.275 449.3 237.6 450.275 236.25 451.025C234.95 451.775 233.125 452.15 230.775 452.15C227.675 452.15 224.45 451.65 221.1 450.65C217.75 449.6 214.2 448.45 210.45 447.2C209.1 449.45 207.775 452.4 206.475 456.05C205.175 459.65 203.65 463.725 201.9 468.275C204.05 468.475 206.325 468.65 208.725 468.8C211.125 468.9 213.075 468.95 214.575 468.95C215.075 468.95 215.325 469.1 215.325 469.4C215.325 469.8 214.75 470.15 213.6 470.45C212.85 470.65 211.575 470.8 209.775 470.9C208.025 471 206.2 471.05 204.3 471.05C203.9 471.05 203.4 471.05 202.8 471.05C202.2 471 201.55 470.975 200.85 470.975C200.4 472.125 199.925 473.3 199.425 474.5C198.975 475.65 198.475 476.85 197.925 478.1C195.825 483.05 193.25 487.075 190.2 490.175C187.2 493.225 183.975 495.575 180.525 497.225C177.125 498.925 173.725 500.075 170.325 500.675C166.975 501.275 163.9 501.575 161.1 501.575ZM227.993 494.225C226.843 494.225 225.818 493.9 224.918 493.25C224.068 492.6 223.643 491.275 223.643 489.275C223.643 488.425 223.693 487.625 223.793 486.875C223.943 486.125 224.118 485.325 224.318 484.475C223.868 485.225 223.243 486.15 222.443 487.25C221.643 488.35 220.743 489.425 219.743 490.475C218.793 491.525 217.793 492.4 216.743 493.1C215.743 493.8 214.793 494.15 213.893 494.15C212.593 494.15 211.543 493.575 210.743 492.425C209.943 491.225 209.543 489.675 209.543 487.775C209.543 485.725 210.018 483.525 210.968 481.175C211.918 478.825 213.218 476.575 214.868 474.425C216.518 472.275 218.418 470.525 220.568 469.175C222.718 467.825 224.968 467.15 227.318 467.15C228.468 467.15 229.568 467.35 230.618 467.75C231.668 468.1 232.593 468.7 233.393 469.55C233.743 469.9 233.918 470.3 233.918 470.75C233.918 471.05 233.793 471.3 233.543 471.5C233.293 471.7 232.968 471.75 232.568 471.65C232.018 469.9 230.843 469.025 229.043 469.025C228.193 469.025 227.218 469.3 226.118 469.85C224.768 470.55 223.318 471.675 221.768 473.225C220.268 474.725 218.843 476.45 217.493 478.4C216.193 480.3 215.118 482.225 214.268 484.175C213.418 486.125 212.993 487.9 212.993 489.5C212.993 491.15 213.618 491.975 214.868 491.975C215.968 491.975 217.093 491.45 218.243 490.4C219.443 489.35 220.568 488.05 221.618 486.5C222.718 484.9 223.718 483.325 224.618 481.775C225.518 480.225 226.218 478.975 226.718 478.025C227.468 476.675 228.168 475.55 228.818 474.65C229.468 473.75 230.393 473.3 231.593 473.3C232.143 473.3 232.693 473.375 233.243 473.525C233.793 473.675 234.368 473.7 234.968 473.6C233.468 475.1 232.143 476.875 230.993 478.925C229.893 480.975 229.043 483 228.443 485C227.843 486.95 227.543 488.6 227.543 489.95C227.543 491.45 228.043 492.2 229.043 492.2C229.843 492.2 230.693 491.75 231.593 490.85C232.543 489.95 233.443 488.825 234.293 487.475C235.193 486.075 236.018 484.675 236.768 483.275C237.518 481.825 238.118 480.575 238.568 479.525C238.818 479.525 239.018 479.55 239.168 479.6C239.368 479.65 239.468 479.85 239.468 480.2C239.418 480.4 239.318 480.625 239.168 480.875C239.068 481.075 238.893 481.45 238.643 482C238.243 482.8 237.693 483.875 236.993 485.225C236.293 486.575 235.468 487.95 234.518 489.35C233.568 490.7 232.543 491.85 231.443 492.8C230.343 493.75 229.193 494.225 227.993 494.225ZM240.173 494.3C238.123 494.3 236.448 493.675 235.148 492.425C233.898 491.125 233.273 489.775 233.273 488.375C233.273 487.225 233.573 486.175 234.173 485.225C234.723 484.225 235.473 483.725 236.423 483.725L236.498 483.575C237.598 481.575 238.648 479.55 239.648 477.5C240.698 475.4 241.848 473.175 243.098 470.825C244.148 468.875 245.273 467.275 246.473 466.025C247.723 464.775 249.173 464.15 250.823 464.15C251.223 464.15 251.773 464.25 252.473 464.45C253.173 464.6 253.523 464.95 253.523 465.5C253.523 465.9 253.298 466.1 252.848 466.1C252.498 466.1 252.098 466 251.648 465.8C251.248 465.6 250.923 465.5 250.673 465.5C249.723 465.5 248.923 466.05 248.273 467.15C247.623 468.25 247.298 469.425 247.298 470.675C247.298 472.025 247.523 473.25 247.973 474.35C248.423 475.4 248.948 476.425 249.548 477.425C250.148 478.425 250.673 479.45 251.123 480.5C251.573 481.5 251.798 482.6 251.798 483.8C251.798 486.2 251.323 488.15 250.373 489.65C249.473 491.1 248.273 492.2 246.773 492.95H246.848C249.498 492.95 251.673 491.725 253.373 489.275C255.123 486.775 256.848 483.525 258.548 479.525C259.148 479.525 259.448 479.75 259.448 480.2C258.498 482.45 257.448 484.65 256.298 486.8C255.148 488.95 253.798 490.725 252.248 492.125C250.698 493.525 248.798 494.225 246.548 494.225C245.598 494.225 244.723 494.125 243.923 493.925C242.773 494.175 241.523 494.3 240.173 494.3ZM239.048 486.35C239.048 487.55 239.323 488.7 239.873 489.8C240.423 490.9 241.423 491.725 242.873 492.275C244.173 491.525 245.173 490.375 245.873 488.825C246.623 487.225 246.998 485.575 246.998 483.875C246.998 482.475 246.848 481.05 246.548 479.6C246.248 478.15 245.923 476.725 245.573 475.325C245.273 473.925 245.123 472.675 245.123 471.575C245.123 471.225 245.123 470.925 245.123 470.675C245.173 470.375 245.223 470.1 245.273 469.85C244.373 471.2 243.448 472.775 242.498 474.575C241.598 476.375 240.723 478.1 239.873 479.75C239.023 481.4 238.248 482.75 237.548 483.8C238.548 483.95 239.048 484.8 239.048 486.35ZM236.573 490.1C236.573 490.9 236.848 491.6 237.398 492.2C237.948 492.8 238.773 493.1 239.873 493.1C240.373 493.1 240.848 493.05 241.298 492.95C240.248 492.3 239.398 491.475 238.748 490.475C238.148 489.475 237.848 488.325 237.848 487.025C237.398 487.525 237.073 488.05 236.873 488.6C236.673 489.1 236.573 489.6 236.573 490.1ZM251.318 494.6C253.418 490.3 255.593 485.8 257.843 481.1C260.143 476.35 262.493 471.575 264.893 466.775C267.293 461.975 269.668 457.4 272.018 453.05C272.868 451.55 273.643 450.375 274.343 449.525C275.093 448.675 276.068 448.25 277.268 448.25C277.718 448.25 278.243 448.325 278.843 448.475C279.443 448.625 280.018 448.65 280.568 448.55C279.918 449.25 279.018 450.475 277.868 452.225C276.768 453.975 275.518 456.075 274.118 458.525C272.768 460.975 271.318 463.625 269.768 466.475C268.268 469.275 266.768 472.125 265.268 475.025C263.818 477.875 262.468 480.55 261.218 483.05C262.218 481.75 263.243 480.525 264.293 479.375C265.343 478.225 266.368 477.225 267.368 476.375C268.468 475.375 269.843 474.325 271.493 473.225C273.193 472.125 274.868 471.175 276.518 470.375C278.218 469.575 279.568 469.175 280.568 469.175C280.918 469.175 281.168 469.2 281.318 469.25C281.318 469.25 281.043 469.75 280.493 470.75C279.943 471.75 279.243 473.025 278.393 474.575C277.593 476.125 276.743 477.8 275.843 479.6C274.993 481.4 274.243 483.125 273.593 484.775C272.943 486.375 272.518 487.7 272.318 488.75C272.168 489.55 272.093 490.225 272.093 490.775C272.093 491.575 272.243 492.125 272.543 492.425C272.843 492.675 273.168 492.8 273.518 492.8C274.368 492.8 275.268 492.375 276.218 491.525C277.218 490.625 278.193 489.5 279.143 488.15C280.093 486.8 280.968 485.375 281.768 483.875C282.618 482.325 283.293 480.875 283.793 479.525C284.393 479.525 284.693 479.75 284.693 480.2C284.143 481.55 283.443 483.05 282.593 484.7C281.793 486.3 280.868 487.825 279.818 489.275C278.768 490.725 277.618 491.925 276.368 492.875C275.118 493.825 273.793 494.3 272.393 494.3C271.393 494.3 270.368 493.95 269.318 493.25C268.268 492.55 267.743 491.275 267.743 489.425C267.743 488.875 267.793 488.3 267.893 487.7C267.993 487.05 268.168 486.325 268.418 485.525C268.718 484.525 269.218 483.425 269.918 482.225C270.618 480.975 271.518 479.425 272.618 477.575C273.118 476.725 273.368 476.05 273.368 475.55C273.368 474.95 273.068 474.65 272.468 474.65C271.968 474.65 271.293 474.9 270.443 475.4C269.593 475.9 268.518 476.775 267.218 478.025C265.968 479.225 264.418 480.975 262.568 483.275C260.718 485.575 258.743 488.8 256.643 492.95C256.293 493.6 255.893 493.95 255.443 494C255.043 494 254.493 494.025 253.793 494.075C253.343 494.125 252.893 494.15 252.443 494.15C251.993 494.2 251.618 494.35 251.318 494.6ZM285.888 494C284.038 494 282.738 493.475 281.988 492.425C281.238 491.325 280.863 490.075 280.863 488.675C280.863 487.925 280.938 487.175 281.088 486.425C281.288 485.625 281.513 484.9 281.763 484.25L286.788 471.425C286.938 471.025 287.013 470.675 287.013 470.375C287.013 469.875 286.888 469.45 286.638 469.1C286.388 468.7 286.213 468.425 286.113 468.275L290.238 468.125C290.988 468.075 291.513 468.175 291.813 468.425C292.163 468.625 292.338 468.875 292.338 469.175C292.338 469.475 292.163 470.025 291.813 470.825C291.313 472.025 290.638 473.525 289.788 475.325C288.938 477.125 288.088 478.975 287.238 480.875C286.438 482.775 285.738 484.55 285.138 486.2C284.588 487.85 284.313 489.125 284.313 490.025C284.313 490.675 284.463 491.225 284.763 491.675C285.113 492.125 285.688 492.35 286.488 492.35C287.538 492.35 288.563 491.95 289.563 491.15C290.613 490.3 291.588 489.225 292.488 487.925C293.388 486.625 294.213 485.225 294.963 483.725C295.763 482.225 296.438 480.825 296.988 479.525C297.588 479.525 297.888 479.75 297.888 480.2C297.388 481.45 296.738 482.875 295.938 484.475C295.138 486.075 294.213 487.6 293.163 489.05C292.163 490.45 291.038 491.625 289.788 492.575C288.588 493.525 287.288 494 285.888 494ZM292.563 463.475C291.913 463.475 291.338 463.225 290.838 462.725C290.388 462.225 290.163 461.625 290.163 460.925C290.163 460.075 290.513 459.325 291.213 458.675C291.913 457.975 292.688 457.625 293.538 457.625C294.238 457.625 294.838 457.85 295.338 458.3C295.838 458.75 296.088 459.325 296.088 460.025C296.088 460.925 295.738 461.725 295.038 462.425C294.338 463.125 293.513 463.475 292.563 463.475ZM301.472 494C299.422 494 297.897 493.275 296.897 491.825C295.947 490.325 295.472 488.525 295.472 486.425C295.472 484.475 295.847 482.45 296.597 480.35C297.397 478.05 298.497 475.95 299.897 474.05C301.347 472.15 302.922 470.625 304.622 469.475C306.372 468.275 308.097 467.675 309.797 467.675C311.847 467.675 313.347 468.375 314.297 469.775C315.297 471.175 315.797 472.95 315.797 475.1C315.797 476.6 315.547 478.175 315.047 479.825C314.547 481.475 313.872 483.1 313.022 484.7C313.672 485.35 314.597 485.675 315.797 485.675C317.197 485.675 318.397 485.225 319.397 484.325C320.397 483.425 321.372 481.825 322.322 479.525C322.922 479.525 323.222 479.75 323.222 480.2C322.272 482.5 321.172 484.2 319.922 485.3C318.722 486.35 317.172 486.85 315.272 486.8C314.122 486.8 313.172 486.475 312.422 485.825C311.022 488.125 309.347 490.075 307.397 491.675C305.497 493.225 303.522 494 301.472 494ZM302.522 492.35C303.672 492.35 304.822 491.875 305.972 490.925C307.122 489.925 308.172 488.8 309.122 487.55C310.072 486.3 310.747 485.225 311.147 484.325C310.347 482.875 309.872 481.8 309.722 481.1C309.622 480.35 309.572 479.8 309.572 479.45C309.572 478.5 309.822 477.775 310.322 477.275C310.822 476.775 311.322 476.525 311.822 476.525C312.522 476.525 313.122 476.825 313.622 477.425C313.722 476.875 313.797 476.375 313.847 475.925C313.897 475.425 313.922 474.95 313.922 474.5C313.922 473.2 313.672 472.15 313.172 471.35C312.722 470.5 311.997 470.075 310.997 470.075C309.947 470.075 308.847 470.525 307.697 471.425C306.547 472.325 305.447 473.525 304.397 475.025C303.397 476.525 302.522 478.2 301.772 480.05C301.122 481.6 300.622 483.075 300.272 484.475C299.922 485.825 299.747 487.075 299.747 488.225C299.747 489.475 299.972 490.475 300.422 491.225C300.872 491.975 301.572 492.35 302.522 492.35ZM315.114 494.6C316.914 490.95 318.639 487.35 320.289 483.8C321.939 480.2 323.639 476.775 325.389 473.525C326.389 471.725 327.239 470.475 327.939 469.775C328.639 469.025 329.564 468.65 330.714 468.65C331.114 468.65 331.539 468.725 331.989 468.875C332.439 468.975 332.889 469.025 333.339 469.025C333.639 469.025 333.864 469 334.014 468.95C333.314 469.35 332.389 470.35 331.239 471.95C330.139 473.5 329.014 475.3 327.864 477.35C326.714 479.4 325.689 481.325 324.789 483.125C325.739 481.975 326.739 480.825 327.789 479.675C328.839 478.525 329.989 477.425 331.239 476.375C332.439 475.325 333.864 474.25 335.514 473.15C337.214 472 338.864 471.05 340.464 470.3C342.064 469.55 343.339 469.175 344.289 469.175C344.639 469.175 344.889 469.2 345.039 469.25C345.039 469.25 344.764 469.75 344.214 470.75C343.664 471.7 342.964 472.975 342.114 474.575C341.314 476.125 340.489 477.8 339.639 479.6C338.789 481.35 338.014 483.05 337.314 484.7C336.664 486.3 336.239 487.65 336.039 488.75C335.889 489.4 335.814 490 335.814 490.55C335.814 491.35 335.964 491.875 336.264 492.125C336.564 492.375 336.889 492.5 337.239 492.5C338.189 492.5 339.164 492.075 340.164 491.225C341.164 490.375 342.114 489.3 343.014 488C343.964 486.65 344.839 485.225 345.639 483.725C346.439 482.225 347.114 480.825 347.664 479.525C348.264 479.525 348.564 479.75 348.564 480.2C348.014 481.55 347.314 483.05 346.464 484.7C345.664 486.3 344.739 487.825 343.689 489.275C342.689 490.725 341.564 491.925 340.314 492.875C339.064 493.825 337.714 494.3 336.264 494.3C335.264 494.3 334.214 493.95 333.114 493.25C332.064 492.55 331.539 491.25 331.539 489.35C331.539 488.8 331.589 488.225 331.689 487.625C331.789 486.975 331.964 486.275 332.214 485.525C332.614 484.525 333.089 483.45 333.639 482.3C334.189 481.15 335.089 479.575 336.339 477.575C336.689 477.025 336.889 476.6 336.939 476.3C337.039 476 337.089 475.75 337.089 475.55C337.089 474.95 336.814 474.65 336.264 474.65C335.814 474.65 335.139 474.9 334.239 475.4C333.389 475.9 332.314 476.775 331.014 478.025C329.764 479.225 328.264 480.925 326.514 483.125C324.814 485.325 322.839 488.575 320.589 492.875C320.239 493.525 319.839 493.875 319.389 493.925C318.989 493.975 318.414 494.025 317.664 494.075C317.164 494.125 316.689 494.15 316.239 494.15C315.789 494.2 315.414 494.35 315.114 494.6Z" fill="black"/>
</svg>
